<?xml version="1.0" encoding="UTF-8"?><svg id="b" xmlns="http://www.w3.org/2000/svg" viewBox="0 0 753.08 753.08"><defs><style>.d{fill:#376f57;}.e{fill:none;}</style></defs><g id="c"><rect class="e" width="753.08" height="753.08"/><path class="d" d="M391.48,743.98h-29.75l-.25-284.54-230.37-183.74-73.35,58.01c-.06-1.96-.76-4.06-.76-5.99,0-189.09,165.08-336.1,352.95-316.93,100.75,10.28,193.21,70.26,242.99,158.06l-261.23,208.06-.24,367.08Z"/><path class="d" d="M407.32,384.81l253.58-201.78c10.16,19.64,18.32,40.41,24.1,61.81,21.58,79.83,11.4,166.28-28.57,238.43-50.46,91.09-144.64,154.36-249.11,163.3v-261.75ZM521.99,380.74h-24.95v29.75h24.95v-29.75ZM552.7,380.74h-24.95v29.75h24.95v-29.75ZM521.99,463.27v-46.3l-.72-.72h-23.99l-.72.72v45.59l.72.72h24.71ZM552.7,416.24h-24.95v47.02h24.95v-47.02Z"/><path class="d" d="M345.9,646.57c-93.33-7.94-179.53-59.82-232.34-136.41-31.83-46.16-50.88-100-55.59-156.08l73.14-58.23,214.79,171.5v179.22ZM270.09,469.99h-18.23v22.07h18.23v-22.07ZM293.12,469.99h-18.23v22.07h18.23v-22.07ZM270.09,496.86h-18.23v34.55h17.51l.72-.72v-33.83ZM293.12,496.86h-18.23v34.55h17.51l.72-.72v-33.83Z"/></g></svg>