<svg width="42" height="42" viewBox="0 0 42 42" fill="none" xmlns="http://www.w3.org/2000/svg">
<path fill-rule="evenodd" clip-rule="evenodd" d="M28 5.6748H14C9.16751 5.6748 5.25 9.59232 5.25 14.4248V28.4248C5.25 33.2573 9.16751 37.1748 14 37.1748H28C32.8324 37.1748 36.75 33.2573 36.75 28.4248V14.4248C36.75 9.59232 32.8324 5.6748 28 5.6748ZM33.6875 28.4248C33.6779 31.5619 31.1371 34.1027 28 34.1123H14C10.8629 34.1027 8.32211 31.5619 8.3125 28.4248V14.4248C8.32211 11.2877 10.8629 8.74691 14 8.7373H28C31.1371 8.74691 33.6779 11.2877 33.6875 14.4248V28.4248ZM29.3125 14.8623C30.279 14.8623 31.0625 14.0788 31.0625 13.1123C31.0625 12.1458 30.279 11.3623 29.3125 11.3623C28.346 11.3623 27.5625 12.1458 27.5625 13.1123C27.5625 14.0788 28.346 14.8623 29.3125 14.8623ZM21 13.5498C16.6508 13.5498 13.125 17.0756 13.125 21.4248C13.125 25.7741 16.6508 29.2998 21 29.2998C25.3493 29.2998 28.875 25.7741 28.875 21.4248C28.8797 19.3348 28.0515 17.3291 26.5736 15.8512C25.0957 14.3733 23.09 13.5451 21 13.5498ZM16.1875 21.4248C16.1875 24.0827 18.3421 26.2373 21 26.2373C23.6579 26.2373 25.8125 24.0827 25.8125 21.4248C25.8125 18.7669 23.6579 16.6123 21 16.6123C18.3421 16.6123 16.1875 18.7669 16.1875 21.4248Z" fill="black"/>
</svg>
